<?xml version="1.0" encoding="UTF-8" standalone="no"?>
<!-- Created with Inkscape (http://www.inkscape.org/) -->

<svg
   xmlns:dc="http://purl.org/dc/elements/1.1/"
   xmlns:cc="http://creativecommons.org/ns#"
   xmlns:rdf="http://www.w3.org/1999/02/22-rdf-syntax-ns#"
   xmlns:svg="http://www.w3.org/2000/svg"
   xmlns="http://www.w3.org/2000/svg"
   xmlns:xlink="http://www.w3.org/1999/xlink"
   xmlns:sodipodi="http://sodipodi.sourceforge.net/DTD/sodipodi-0.dtd"
   xmlns:inkscape="http://www.inkscape.org/namespaces/inkscape"
   width="333.05197"
   height="164.41785"
   id="svg2"
   version="1.1"
   inkscape:version="0.47pre4 r22446"
   sodipodi:docname="psychopy.svg.svg">
  <defs
     id="defs4">
    <linearGradient
       id="linearGradient3853"
       inkscape:collect="always">
      <stop
         id="stop3855"
         offset="0"
         style="stop-color:#808080;stop-opacity:1" />
      <stop
         id="stop3857"
         offset="1"
         style="stop-color:#ffffff;stop-opacity:1" />
    </linearGradient>
    <linearGradient
       inkscape:collect="always"
       id="linearGradient3841">
      <stop
         style="stop-color:#666666;stop-opacity:1"
         offset="0"
         id="stop3843" />
      <stop
         style="stop-color:#ffffff;stop-opacity:1"
         offset="1"
         id="stop3845" />
    </linearGradient>
    <linearGradient
       inkscape:collect="always"
       id="linearGradient3831">
      <stop
         style="stop-color:#b3b3b3;stop-opacity:1"
         offset="0"
         id="stop3833" />
      <stop
         style="stop-color:#ffffff;stop-opacity:1"
         offset="1"
         id="stop3835" />
    </linearGradient>
    <linearGradient
       inkscape:collect="always"
       id="linearGradient3772">
      <stop
         style="stop-color:#222222;stop-opacity:1;"
         offset="0"
         id="stop3774" />
      <stop
         style="stop-color:#222222;stop-opacity:0;"
         offset="1"
         id="stop3776" />
    </linearGradient>
    <linearGradient
       id="linearGradient3750">
      <stop
         id="stop3752"
         offset="0"
         style="stop-color:#000000;stop-opacity:1;" />
      <stop
         style="stop-color:#141414;stop-opacity:1;"
         offset="0.12876198"
         id="stop3762" />
      <stop
         id="stop3764"
         offset="0.22307248"
         style="stop-color:#262626;stop-opacity:1;" />
      <stop
         style="stop-color:#393939;stop-opacity:1;"
         offset="0.31924155"
         id="stop3766" />
      <stop
         id="stop3768"
         offset="0.42719939"
         style="stop-color:#4f4f4f;stop-opacity:1;" />
      <stop
         style="stop-color:#bbbbbb;stop-opacity:1;"
         offset="0.64108545"
         id="stop3760" />
      <stop
         style="stop-color:#d0d0d0;stop-opacity:1;"
         offset="0.72748369"
         id="stop3758" />
      <stop
         style="stop-color:#e5e5e5;stop-opacity:1;"
         offset="0.81589973"
         id="stop3756" />
      <stop
         id="stop3754"
         offset="1"
         style="stop-color:#f7f7f7;stop-opacity:1;" />
    </linearGradient>
    <linearGradient
       inkscape:collect="always"
       id="linearGradient3714">
      <stop
         style="stop-color:#ffffff;stop-opacity:1;"
         offset="0"
         id="stop3716" />
      <stop
         style="stop-color:#ffffff;stop-opacity:0;"
         offset="1"
         id="stop3718" />
    </linearGradient>
    <linearGradient
       inkscape:collect="always"
       xlink:href="#linearGradient3750"
       id="linearGradient3643"
       x1="423.71222"
       y1="782.60333"
       x2="441.418"
       y2="793.06329"
       gradientUnits="userSpaceOnUse"
       spreadMethod="reflect" />
    <linearGradient
       inkscape:collect="always"
       xlink:href="#linearGradient3714"
       id="linearGradient3720"
       x1="365.3989"
       y1="486.5683"
       x2="408.96875"
       y2="614.06213"
       gradientUnits="userSpaceOnUse" />
    <linearGradient
       inkscape:collect="always"
       xlink:href="#linearGradient3772"
       id="linearGradient3778"
       x1="471.34607"
       y1="873.54211"
       x2="467.4519"
       y2="766.62939"
       gradientUnits="userSpaceOnUse" />
    <linearGradient
       inkscape:collect="always"
       xlink:href="#linearGradient3831"
       id="linearGradient3829"
       gradientUnits="userSpaceOnUse"
       gradientTransform="matrix(0.98832452,0,0,0.98832452,-44.22406,-133.90409)"
       spreadMethod="reflect"
       x1="411.04434"
       y1="691.27911"
       x2="476.58185"
       y2="762.19476" />
    <linearGradient
       inkscape:collect="always"
       xlink:href="#linearGradient3841"
       id="linearGradient3847"
       x1="404.85583"
       y1="692.75299"
       x2="497.16815"
       y2="814.81799"
       gradientUnits="userSpaceOnUse" />
    <linearGradient
       inkscape:collect="always"
       xlink:href="#linearGradient3853"
       id="linearGradient3851"
       gradientUnits="userSpaceOnUse"
       x1="404.85583"
       y1="692.75299"
       x2="497.16815"
       y2="814.81799" />
    <linearGradient
       inkscape:collect="always"
       xlink:href="#linearGradient3853"
       id="linearGradient2903"
       gradientUnits="userSpaceOnUse"
       x1="404.85583"
       y1="692.75299"
       x2="497.16815"
       y2="814.81799" />
    <linearGradient
       inkscape:collect="always"
       xlink:href="#linearGradient3841"
       id="linearGradient2905"
       gradientUnits="userSpaceOnUse"
       x1="404.85583"
       y1="692.75299"
       x2="497.16815"
       y2="814.81799" />
    <linearGradient
       inkscape:collect="always"
       xlink:href="#linearGradient3750"
       id="linearGradient2907"
       gradientUnits="userSpaceOnUse"
       spreadMethod="reflect"
       x1="423.71222"
       y1="782.60333"
       x2="441.418"
       y2="793.06329" />
    <linearGradient
       inkscape:collect="always"
       xlink:href="#linearGradient3714"
       id="linearGradient2909"
       gradientUnits="userSpaceOnUse"
       x1="365.3989"
       y1="486.5683"
       x2="408.96875"
       y2="614.06213" />
    <linearGradient
       inkscape:collect="always"
       xlink:href="#linearGradient3772"
       id="linearGradient2911"
       gradientUnits="userSpaceOnUse"
       x1="471.34607"
       y1="873.54211"
       x2="467.4519"
       y2="766.62939" />
    <linearGradient
       inkscape:collect="always"
       xlink:href="#linearGradient3831"
       id="linearGradient2913"
       gradientUnits="userSpaceOnUse"
       gradientTransform="matrix(0.98832452,0,0,0.98832452,-44.22406,-133.90409)"
       spreadMethod="reflect"
       x1="411.04434"
       y1="691.27911"
       x2="476.58185"
       y2="762.19476" />
  </defs>
  <sodipodi:namedview
     id="base"
     pagecolor="#ffffff"
     bordercolor="#666666"
     borderopacity="1.0"
     inkscape:pageopacity="0.0"
     inkscape:pageshadow="2"
     inkscape:zoom="1.5749948"
     inkscape:cx="182.52396"
     inkscape:cy="208.1425"
     inkscape:document-units="px"
     inkscape:current-layer="layer1"
     showgrid="false"
     inkscape:window-width="1857"
     inkscape:window-height="1179"
     inkscape:window-x="61"
     inkscape:window-y="19"
     inkscape:window-maximized="0" />
  <metadata
     id="metadata7">
    <rdf:RDF>
      <cc:Work
         rdf:about="">
        <dc:format>image/svg+xml</dc:format>
        <dc:type
           rdf:resource="http://purl.org/dc/dcmitype/StillImage" />
        <dc:title />
      </cc:Work>
    </rdf:RDF>
  </metadata>
  <g
     inkscape:label="Layer 1"
     inkscape:groupmode="layer"
     id="layer1"
     transform="translate(-326.81408,-525.12119)">
    <g
       id="g2884">
      <g
         id="g3859">
        <path
           transform="matrix(1.0077834,0,0,1.0077834,-53.148013,-148.49809)"
           d="m 540.17553,749.99072 c 0,45.05208 -36.52192,81.574 -81.574,81.574 -45.05207,0 -81.574,-36.52192 -81.574,-81.574 0,-45.05207 36.52193,-81.57399 81.574,-81.57399 45.05208,0 81.574,36.52192 81.574,81.57399 z"
           sodipodi:ry="81.573997"
           sodipodi:rx="81.573997"
           sodipodi:cy="749.99072"
           sodipodi:cx="458.60153"
           id="path3794"
           style="fill:#999999;fill-opacity:1;stroke:none"
           sodipodi:type="arc" />
        <path
           transform="matrix(-1.0038917,0,0,-1.0038917,869.4093,1360.2396)"
           d="m 540.17553,749.99072 c 0,45.05208 -36.52192,81.574 -81.574,81.574 -45.05207,0 -81.574,-36.52192 -81.574,-81.574 0,-45.05207 36.52193,-81.57399 81.574,-81.57399 45.05208,0 81.574,36.52192 81.574,81.57399 z"
           sodipodi:ry="81.573997"
           sodipodi:rx="81.573997"
           sodipodi:cy="749.99072"
           sodipodi:cx="458.60153"
           id="path3849"
           style="fill:url(#linearGradient2903);fill-opacity:1;stroke:none"
           sodipodi:type="arc" />
        <path
           sodipodi:type="arc"
           style="fill:url(#linearGradient2905);fill-opacity:1;stroke:none"
           id="path3837"
           sodipodi:cx="458.60153"
           sodipodi:cy="749.99072"
           sodipodi:rx="81.573997"
           sodipodi:ry="81.573997"
           d="m 540.17553,749.99072 c 0,45.05208 -36.52192,81.574 -81.574,81.574 -45.05207,0 -81.574,-36.52192 -81.574,-81.574 0,-45.05207 36.52193,-81.57399 81.574,-81.57399 45.05208,0 81.574,36.52192 81.574,81.57399 z"
           transform="matrix(0.93384114,0,0,0.93384114,-19.237984,-93.042077)" />
        <path
           transform="matrix(0.89674453,0,0,0.89674453,-2.22543,-65.219961)"
           d="m 540.17553,749.99072 c 0,45.05208 -36.52192,81.574 -81.574,81.574 -45.05207,0 -81.574,-36.52192 -81.574,-81.574 0,-45.05207 36.52193,-81.57399 81.574,-81.57399 45.05208,0 81.574,36.52192 81.574,81.57399 z"
           sodipodi:ry="81.573997"
           sodipodi:rx="81.573997"
           sodipodi:cy="749.99072"
           sodipodi:cx="458.60153"
           id="path3627"
           style="fill:url(#linearGradient2907);fill-opacity:1;stroke:#616161;stroke-width:1.11514485;stroke-linecap:round;stroke-linejoin:miter;stroke-miterlimit:4;stroke-opacity:0.65098039;stroke-dasharray:none"
           sodipodi:type="arc" />
        <path
           style="fill:url(#linearGradient2909);fill-opacity:1;stroke:none"
           d="m 409.03125,534.1875 c -40.4002,0 -73.15625,32.75605 -73.15625,73.15625 0,6.44798 0.83978,12.70002 2.40625,18.65625 19.41506,-25.1435 49.8382,-41.34375 84.0625,-41.34375 22.13372,0 42.7086,6.75694 59.71875,18.34375 -2.23978,-38.38544 -34.08407,-68.8125 -73.03125,-68.8125 z"
           id="path3692" />
        <path
           sodipodi:type="arc"
           style="fill:url(#linearGradient2911);fill-opacity:1;stroke:none"
           id="path3770"
           sodipodi:cx="458.60153"
           sodipodi:cy="749.99072"
           sodipodi:rx="81.573997"
           sodipodi:ry="81.573997"
           d="m 540.17553,749.99072 c 0,45.05208 -36.52192,81.574 -81.574,81.574 -45.05207,0 -81.574,-36.52192 -81.574,-81.574 0,-45.05207 36.52193,-81.57399 81.574,-81.57399 45.05208,0 81.574,36.52192 81.574,81.57399 z"
           transform="matrix(0.89674453,0,0,0.89674453,-2.22543,-65.219961)" />
        <path
           style="fill:url(#linearGradient2913);fill-opacity:1;stroke:none"
           d="m 409.03144,526.70387 c -44.52607,0 -80.64007,36.114 -80.64007,80.64007 0,44.52607 36.114,80.60844 80.64007,80.60844 44.52607,0 80.60844,-36.08237 80.60844,-80.60844 0,-44.52607 -36.08237,-80.64007 -80.60844,-80.64007 z m 0,5.62899 c 41.41541,0 74.97945,33.59566 74.97945,75.01108 0,41.41541 -33.56404,74.97945 -74.97945,74.97945 -41.41542,0 -75.01108,-33.56404 -75.01108,-74.97945 0,-41.41542 33.59566,-75.01108 75.01108,-75.01108 z"
           id="path2853" />
      </g>
      <g
         id="text2863"
         style="font-size:55.88455963px;font-style:italic;font-variant:normal;font-weight:bold;font-stretch:normal;text-align:start;line-height:125%;writing-mode:lr-tb;text-anchor:start;fill:#000000;fill-opacity:1;stroke:none;font-family:Monotype Corsiva;-inkscape-font-specification:Monotype Corsiva Bold Italic">
        <path
           id="path2868"
           d="m 484.8175,561.61858 0.32745,-1.22793 c 2.63776,-0.25466 4.89352,-0.61849 6.76727,-1.0915 -0.45481,1.27344 -0.94598,2.93797 -1.47352,4.99359 l -2.01926,7.66776 2.51044,0.16372 c 1.16423,0.0546 2.42855,-0.23647 3.79294,-0.87319 1.38253,-0.63669 2.61047,-1.75547 3.6838,-3.35635 1.09146,-1.60084 1.63721,-3.32904 1.63724,-5.1846 -3e-5,-1.83733 -0.66402,-3.29265 -1.99198,-4.36599 -1.30982,-1.07327 -3.31999,-1.60992 -6.03051,-1.60995 -3.09259,3e-5 -6.12149,0.77317 -9.0867,2.31943 -2.96524,1.52812 -5.25738,3.49281 -6.87642,5.89407 -1.60086,2.38312 -2.40129,4.73893 -2.40129,7.06743 0,1.14609 0.2092,2.14662 0.62761,3.00161 0.4184,0.83683 1.16426,1.66455 2.23757,2.48316 0.89138,0.6549 1.33707,1.29161 1.33708,1.91011 -10e-6,0.40023 -0.14554,0.73677 -0.4366,1.00964 -0.29107,0.27288 -0.63671,0.40931 -1.03692,0.40931 -1.07331,0 -2.11023,-0.73675 -3.11076,-2.21028 -1.00054,-1.47351 -1.50081,-3.33814 -1.50081,-5.59391 0,-4.12948 1.58267,-7.89513 4.74801,-11.29698 4.14767,-4.4751 9.71429,-6.71266 16.69988,-6.7127 2.65594,4e-5 4.82983,0.34568 6.52168,1.03692 1.70998,0.69132 2.98339,1.63728 3.82023,2.83789 0.85497,1.20067 1.28247,2.50137 1.28251,3.9021 -4e-5,1.7828 -0.60036,3.53828 -1.80097,5.26646 -1.18248,1.71003 -2.93797,3.09259 -5.26646,4.14768 -2.31036,1.05513 -4.88447,1.58269 -7.72233,1.58267 -0.43662,2e-5 -1.1188,-0.0273 -2.04655,-0.0819 l -2.15571,8.48638 c -0.36385,1.43714 -0.77316,2.85608 -1.22793,4.25683 1.41893,0.34564 2.65595,0.51846 3.71108,0.51846 1.32797,0 2.75601,-0.25468 4.28412,-0.76405 l -0.32745,1.52809 c -1.41896,0.38203 -2.61961,0.57304 -3.60193,0.57304 -0.94598,0 -2.32854,-0.10005 -4.14768,-0.30016 -1.45534,-0.18192 -2.6378,-0.27288 -3.54736,-0.27288 -1.7646,0 -3.57466,0.20921 -5.43019,0.62761 l 0.32745,-1.44623 c 1.89191,-0.30925 3.18351,-0.75495 3.87481,-1.33708 0.98233,-0.81862 1.78276,-2.46495 2.40129,-4.93901 l 4.12039,-16.34515 c 0.1819,-0.76402 0.27286,-1.30067 0.27287,-1.60995 -1e-5,-0.29104 -0.11826,-0.54572 -0.35473,-0.76405 -0.23651,-0.23646 -0.51848,-0.35471 -0.84591,-0.35473 -0.12736,2e-5 -0.30927,0.0182 -0.54575,0.0546" />
        <path
           id="path2870"
           d="m 514.6699,564.75663 c 1.61903,2e-5 2.86515,0.31837 3.73837,0.95506 0.89137,0.61853 1.33706,1.3371 1.33708,2.1557 -2e-5,0.49119 -0.19103,0.91869 -0.57303,1.28251 -0.36386,0.36385 -0.80955,0.54576 -1.33708,0.54575 -0.34566,10e-6 -0.64582,-0.0728 -0.90049,-0.2183 -0.2547,-0.16371 -0.61853,-0.55483 -1.09149,-1.17336 -0.89141,-1.18243 -1.7737,-1.77366 -2.64688,-1.77368 -0.74587,2e-5 -1.40986,0.29109 -1.99198,0.87319 -0.56395,0.56396 -0.84592,1.27344 -0.84591,2.12842 -1e-5,0.74587 0.18191,1.47354 0.54575,2.18299 0.36382,0.6913 1.28249,1.81917 2.75603,3.38364 2.01924,2.14661 3.02888,4.18407 3.0289,6.11237 -2e-5,1.92831 -0.81864,3.62013 -2.45587,5.07545 -1.63726,1.43714 -3.74748,2.15571 -6.33067,2.15571 -2.16481,0 -3.77476,-0.4366 -4.82987,-1.3098 -1.05511,-0.89138 -1.58267,-1.98288 -1.58267,-3.27448 0,-0.6367 0.20011,-1.16426 0.60033,-1.58267 0.40021,-0.4184 0.89138,-0.62761 1.47351,-0.62761 0.50936,0 0.94596,0.17282 1.3098,0.51846 0.36382,0.32745 0.54574,0.71857 0.54575,1.17336 -1e-5,0.18192 -0.0182,0.41841 -0.0546,0.70947 -0.0182,0.23649 -0.0273,0.4366 -0.0273,0.60032 0,0.60033 0.25468,1.10969 0.76405,1.52809 0.49117,0.41841 1.16425,0.62761 2.01927,0.62761 0.98233,0 1.84643,-0.16372 2.5923,-0.49117 0.74584,-0.34564 1.32797,-0.855 1.74639,-1.52809 0.41839,-0.69128 0.6276,-1.37346 0.62761,-2.04656 -1e-5,-0.65489 -0.20012,-1.30978 -0.60032,-1.96469 -0.38204,-0.65489 -1.25523,-1.73729 -2.61959,-3.2472 -1.89194,-2.11021 -2.8379,-4.13857 -2.83789,-6.08508 -1e-5,-1.78276 0.71856,-3.33814 2.15571,-4.66614 1.43712,-1.34616 3.26537,-2.01925 5.48476,-2.01927" />
        <path
           id="path2872"
           d="m 520.5094,570.32325 -0.8732,-1.2825 2.01927,-1.36437 c 1.96468,-1.34616 3.34724,-2.21026 4.14768,-2.5923 0.45478,-0.21828 0.87318,-0.32743 1.25522,-0.32745 0.38201,2e-5 0.74584,0.21832 1.09149,0.6549 1.60085,2.01928 2.94703,4.74802 4.03854,8.18621 1.09147,3.42003 1.63722,6.73999 1.63724,9.9599 -2e-5,0.41841 -0.0182,1.05511 -0.0546,1.91011 3.07436,-5.65757 4.61155,-10.15089 4.61157,-13.47996 -2e-5,-0.69127 -0.15465,-1.60994 -0.46388,-2.75603 -0.32747,-1.27339 -0.4912,-2.18297 -0.49118,-2.72874 -2e-5,-0.52753 0.16371,-0.96413 0.49118,-1.30979 0.34561,-0.34562 0.77312,-0.51844 1.2825,-0.51846 0.63669,2e-5 1.14605,0.24561 1.5281,0.73676 0.40019,0.49119 0.60029,1.19157 0.60032,2.10112 -3e-5,2.34674 -0.53668,5.27558 -1.60996,8.78654 -1.07332,3.49279 -2.76514,7.25845 -5.07545,11.29698 -2.29216,4.02034 -4.39328,7.00375 -6.30338,8.95026 -1.89194,1.96468 -3.72929,3.36543 -5.51206,4.20226 -1.76459,0.85499 -3.43821,1.28249 -5.02087,1.2825 -1.20065,-1e-5 -2.10113,-0.22741 -2.70146,-0.68218 -0.61851,-0.43661 -0.92776,-0.96417 -0.92777,-1.58267 10e-6,-0.54576 0.2365,-1.01874 0.70948,-1.41894 0.47298,-0.38204 1.10968,-0.57305 1.91011,-0.57304 0.61851,-10e-6 1.46442,0.11824 2.53773,0.35474 1.14606,0.25467 1.9283,0.38201 2.34671,0.38202 1.10968,-10e-6 2.28304,-0.46389 3.52008,-1.39166 1.6918,-1.27341 3.02888,-2.79241 4.01124,-4.55699 1.00052,-1.76459 1.50079,-3.54736 1.50081,-5.34833 -2e-5,-2.52862 -0.37294,-5.56662 -1.11879,-9.11398 -0.72767,-3.54735 -1.76459,-6.25789 -3.11076,-8.13164 -0.6731,-0.96414 -1.39166,-1.44621 -2.1557,-1.44623 -0.8914,2e-5 -2.16481,0.60034 -3.82023,1.80096" />
        <path
           id="path2874"
           d="m 557.94769,581.81124 0.57303,1.58267 c -4.32961,3.40183 -7.98612,5.10274 -10.96952,5.10274 -1.58268,0 -2.73785,-0.56394 -3.4655,-1.69182 -0.70948,-1.12787 -1.06422,-2.55591 -1.06421,-4.28412 -10e-6,-2.87426 0.76404,-5.83039 2.29214,-8.86839 1.52808,-3.03798 3.38362,-5.3665 5.56663,-6.98557 1.70999,-1.2552 3.6383,-1.88281 5.78492,-1.88283 1.34616,2e-5 2.36489,0.2547 3.05619,0.76404 0.69126,0.50939 1.0369,1.1279 1.03692,1.85554 -2e-5,0.56396 -0.18194,1.02785 -0.54575,1.39166 -0.36385,0.34566 -0.87322,0.51848 -1.52809,0.51846 -0.63673,2e-5 -1.45535,-0.29105 -2.45587,-0.87319 -1.03693,-0.6185 -1.90103,-0.92776 -2.5923,-0.92778 -0.8914,2e-5 -1.78279,0.40933 -2.67416,1.22794 -0.87321,0.80044 -1.71002,2.36492 -2.51044,4.69343 -0.80044,2.32853 -1.20066,4.66615 -1.20065,7.01285 -10e-6,1.72821 0.33654,3.06529 1.00964,4.01125 0.49116,0.72767 1.18244,1.0915 2.07384,1.09149 2.1284,10e-6 4.66612,-1.24612 7.61318,-3.73837" />
        <path
           id="path2876"
           d="m 583.8707,581.94768 0.70947,1.00963 c -1.67365,1.85555 -3.39275,3.32907 -5.15731,4.42056 -1.20067,0.74585 -2.19211,1.11878 -2.97433,1.11878 -0.63672,0 -1.15518,-0.25468 -1.55538,-0.76405 -0.38204,-0.50936 -0.57305,-1.30069 -0.57303,-2.374 -2e-5,-0.72766 0.14551,-1.78277 0.4366,-3.16533 0.30924,-1.40075 1.16424,-4.39326 2.56501,-8.97755 0.61849,-2.25574 0.92775,-3.57463 0.92777,-3.95667 -2e-5,-0.6185 -0.30928,-0.92775 -0.92777,-0.92777 -0.76407,2e-5 -1.71912,0.38204 -2.86517,1.14607 -1.60088,1.05513 -3.01982,2.4013 -4.25684,4.03853 -0.78225,1.05512 -1.40986,2.6196 -1.88283,4.69343 l -2.18299,9.49601 -4.06582,0 c 0.87319,-3.18353 1.54628,-5.78492 2.01927,-7.80419 l 4.01125,-17.5185 c 0.72765,-3.21989 1.6827,-5.69394 2.86517,-7.42217 1.20063,-1.74636 2.75601,-3.13801 4.66614,-4.17497 1.92829,-1.03688 3.82931,-1.55534 5.70307,-1.55538 0.78221,4e-5 1.40072,0.19105 1.85554,0.57303 0.45476,0.38206 0.68216,0.86414 0.68218,1.44623 -2e-5,0.49121 -0.22742,0.92781 -0.68218,1.3098 -0.43663,0.36387 -1.03695,0.54578 -1.80097,0.54575 -0.43662,3e-5 -1.00056,-0.0454 -1.69182,-0.13644 -1.56449,-0.21826 -2.64689,-0.32741 -3.2472,-0.32745 -0.83683,4e-5 -1.51901,0.33658 -2.04655,1.00963 -0.52757,0.67313 -1.07332,2.25579 -1.63724,4.74801 l -3.05619,13.47997 c 2.16479,-2.27393 4.52059,-4.19315 7.06743,-5.75764 1.49169,-0.92775 2.69234,-1.39164 3.60194,-1.39166 0.70945,2e-5 1.26429,0.21832 1.66453,0.6549 0.40019,0.41843 0.6003,1.00965 0.60032,1.77368 -2e-5,0.61853 -0.0728,1.23705 -0.2183,1.85554 -0.23651,1.07332 -0.79136,3.01982 -1.66453,5.8395 -1.18247,3.89301 -1.88285,6.31249 -2.10113,7.25844 -0.20013,0.94597 -0.30018,1.79188 -0.30016,2.53773 -2e-5,0.29107 0.0455,0.50937 0.13644,0.6549 0.10913,0.14553 0.26375,0.2183 0.46388,0.2183 0.43658,0 1.2552,-0.51846 2.45587,-1.55538 0.67306,-0.56394 1.49168,-1.23703 2.45586,-2.01927" />
        <path
           id="path2878"
           d="m 600.05212,564.78392 c 1.78276,2e-5 3.26537,0.70949 4.44785,2.12841 1.18243,1.41897 1.77365,3.39275 1.77368,5.92136 -3e-5,4.03855 -1.41897,7.66777 -4.25684,10.88767 -2.8379,3.20172 -5.83951,4.80258 -9.00483,4.80258 -1.94651,0 -3.52008,-0.63671 -4.72072,-1.91012 -1.18246,-1.27341 -1.77368,-3.0107 -1.77368,-5.21189 0,-3.82022 1.09149,-7.34939 3.27449,-10.5875 2.74692,-4.02032 6.16693,-6.03049 10.26005,-6.03051 m -2.31942,2.04655 c -1.5463,2e-5 -3.04711,1.10971 -4.50242,3.32906 -1.43715,2.2012 -2.15571,5.24829 -2.15571,9.14127 0,2.36492 0.44569,4.22955 1.33709,5.59392 0.65488,1.00054 1.52808,1.5008 2.61958,1.5008 1.52808,0 2.91974,-0.94596 4.17497,-2.83788 1.60085,-2.45586 2.40127,-5.50295 2.40129,-9.14128 -2e-5,-2.72872 -0.37294,-4.67522 -1.11878,-5.8395 -0.72768,-1.16424 -1.64635,-1.74637 -2.75602,-1.74639" />
        <path
           id="path2880"
           d="m 621.25442,561.61858 0.32745,-1.22793 c 2.63776,-0.25466 4.89352,-0.61849 6.76727,-1.0915 -0.45481,1.27344 -0.94598,2.93797 -1.47352,4.99359 l -2.01926,7.66776 2.51044,0.16372 c 1.16423,0.0546 2.42855,-0.23647 3.79294,-0.87319 1.38253,-0.63669 2.61047,-1.75547 3.6838,-3.35635 1.09146,-1.60084 1.63721,-3.32904 1.63724,-5.1846 -3e-5,-1.83733 -0.66402,-3.29265 -1.99198,-4.36599 -1.30982,-1.07327 -3.31999,-1.60992 -6.03051,-1.60995 -3.09259,3e-5 -6.12149,0.77317 -9.0867,2.31943 -2.96524,1.52812 -5.25738,3.49281 -6.87642,5.89407 -1.60086,2.38312 -2.40129,4.73893 -2.40129,7.06743 0,1.14609 0.2092,2.14662 0.62761,3.00161 0.4184,0.83683 1.16426,1.66455 2.23757,2.48316 0.89138,0.6549 1.33707,1.29161 1.33708,1.91011 -1e-5,0.40023 -0.14554,0.73677 -0.4366,1.00964 -0.29107,0.27288 -0.63671,0.40931 -1.03692,0.40931 -1.07331,0 -2.11023,-0.73675 -3.11076,-2.21028 -1.00054,-1.47351 -1.50081,-3.33814 -1.50081,-5.59391 0,-4.12948 1.58267,-7.89513 4.74801,-11.29698 4.14767,-4.4751 9.71429,-6.71266 16.69988,-6.7127 2.65594,4e-5 4.82983,0.34568 6.52168,1.03692 1.70998,0.69132 2.98339,1.63728 3.82023,2.83789 0.85497,1.20067 1.28247,2.50137 1.28251,3.9021 -4e-5,1.7828 -0.60036,3.53828 -1.80097,5.26646 -1.18248,1.71003 -2.93797,3.09259 -5.26646,4.14768 -2.31036,1.05513 -4.88447,1.58269 -7.72233,1.58267 -0.43662,2e-5 -1.1188,-0.0273 -2.04655,-0.0819 l -2.15571,8.48638 c -0.36385,1.43714 -0.77316,2.85608 -1.22793,4.25683 1.41893,0.34564 2.65595,0.51846 3.71108,0.51846 1.32797,0 2.75601,-0.25468 4.28412,-0.76405 l -0.32745,1.52809 c -1.41896,0.38203 -2.61961,0.57304 -3.60193,0.57304 -0.94598,0 -2.32854,-0.10005 -4.14768,-0.30016 -1.45534,-0.18192 -2.6378,-0.27288 -3.54736,-0.27288 -1.7646,0 -3.57466,0.20921 -5.43019,0.62761 l 0.32745,-1.44623 c 1.89191,-0.30925 3.18351,-0.75495 3.87481,-1.33708 0.98233,-0.81862 1.78276,-2.46495 2.40129,-4.93901 l 4.12039,-16.34515 c 0.1819,-0.76402 0.27286,-1.30067 0.27287,-1.60995 -10e-6,-0.29104 -0.11826,-0.54572 -0.35473,-0.76405 -0.23651,-0.23646 -0.51848,-0.35471 -0.84591,-0.35473 -0.12736,2e-5 -0.30927,0.0182 -0.54575,0.0546" />
        <path
           id="path2882"
           d="m 639.0458,570.32325 -0.8732,-1.2825 2.01927,-1.36437 c 1.96468,-1.34616 3.34724,-2.21026 4.14768,-2.5923 0.45478,-0.21828 0.87318,-0.32743 1.25522,-0.32745 0.38201,2e-5 0.74584,0.21832 1.09149,0.6549 1.60085,2.01928 2.94703,4.74802 4.03854,8.18621 1.09147,3.42003 1.63722,6.73999 1.63724,9.9599 -2e-5,0.41841 -0.0182,1.05511 -0.0546,1.91011 3.07436,-5.65757 4.61155,-10.15089 4.61157,-13.47996 -2e-5,-0.69127 -0.15465,-1.60994 -0.46388,-2.75603 -0.32747,-1.27339 -0.4912,-2.18297 -0.49118,-2.72874 -2e-5,-0.52753 0.16371,-0.96413 0.49118,-1.30979 0.34561,-0.34562 0.77312,-0.51844 1.2825,-0.51846 0.63669,2e-5 1.14605,0.24561 1.5281,0.73676 0.40019,0.49119 0.60029,1.19157 0.60032,2.10112 -3e-5,2.34674 -0.53668,5.27558 -1.60996,8.78654 -1.07332,3.49279 -2.76514,7.25845 -5.07545,11.29698 -2.29216,4.02034 -4.39328,7.00375 -6.30338,8.95026 -1.89194,1.96468 -3.72929,3.36543 -5.51206,4.20226 -1.76459,0.85499 -3.43821,1.28249 -5.02087,1.2825 -1.20065,-1e-5 -2.10113,-0.22741 -2.70146,-0.68218 -0.61851,-0.43661 -0.92776,-0.96417 -0.92777,-1.58267 10e-6,-0.54576 0.2365,-1.01874 0.70948,-1.41894 0.47298,-0.38204 1.10968,-0.57305 1.91011,-0.57304 0.61851,-10e-6 1.46442,0.11824 2.53773,0.35474 1.14606,0.25467 1.9283,0.38201 2.34671,0.38202 1.10968,-10e-6 2.28304,-0.46389 3.52008,-1.39166 1.6918,-1.27341 3.02888,-2.79241 4.01124,-4.55699 1.00052,-1.76459 1.50079,-3.54736 1.50081,-5.34833 -2e-5,-2.52862 -0.37294,-5.56662 -1.11879,-9.11398 -0.72767,-3.54735 -1.76459,-6.25789 -3.11076,-8.13164 -0.6731,-0.96414 -1.39166,-1.44621 -2.1557,-1.44623 -0.8914,2e-5 -2.16481,0.60034 -3.82023,1.80096" />
      </g>
    </g>
  </g>
</svg>
